<mxfile host="app.diagrams.net" modified="2023-03-29T02:13:04.488Z" agent="Mozilla/5.0 (Macintosh; Intel Mac OS X 10_15_7) AppleWebKit/537.36 (KHTML, like Gecko) Chrome/111.0.0.0 Safari/537.36" etag="zaAtfQLUQJ47cKGglQfX" version="21.1.1" type="device">
  <diagram name="Page-1" id="--raG2QksG3-SMzAUWRV">
    <mxGraphModel dx="774" dy="575" grid="1" gridSize="10" guides="1" tooltips="1" connect="1" arrows="1" fold="1" page="1" pageScale="1" pageWidth="850" pageHeight="1100" math="0" shadow="0">
      <root>
        <mxCell id="0" />
        <mxCell id="1" parent="0" />
        <mxCell id="ol1APRUKmw6faN0r31_i-56" value="" style="rounded=0;whiteSpace=wrap;html=1;fillColor=#9CFFB9;" vertex="1" parent="1">
          <mxGeometry x="430" width="320" height="130" as="geometry" />
        </mxCell>
        <mxCell id="ol1APRUKmw6faN0r31_i-28" value="" style="rounded=0;whiteSpace=wrap;html=1;fillColor=#FFE4D4;" vertex="1" parent="1">
          <mxGeometry x="110" y="140" width="570" height="280" as="geometry" />
        </mxCell>
        <mxCell id="ol1APRUKmw6faN0r31_i-18" style="edgeStyle=orthogonalEdgeStyle;rounded=0;orthogonalLoop=1;jettySize=auto;html=1;entryX=0;entryY=0.5;entryDx=0;entryDy=0;entryPerimeter=0;" edge="1" parent="1" source="ol1APRUKmw6faN0r31_i-1" target="ol1APRUKmw6faN0r31_i-4">
          <mxGeometry relative="1" as="geometry" />
        </mxCell>
        <mxCell id="ol1APRUKmw6faN0r31_i-1" value="Amazon S3" style="sketch=0;outlineConnect=0;fontColor=#232F3E;gradientColor=none;strokeColor=#ffffff;fillColor=#232F3E;dashed=0;verticalLabelPosition=middle;verticalAlign=bottom;align=center;html=1;whiteSpace=wrap;fontSize=10;fontStyle=1;spacing=3;shape=mxgraph.aws4.productIcon;prIcon=mxgraph.aws4.s3;" vertex="1" parent="1">
          <mxGeometry x="240" y="170" width="60" height="80" as="geometry" />
        </mxCell>
        <mxCell id="ol1APRUKmw6faN0r31_i-40" style="edgeStyle=orthogonalEdgeStyle;rounded=0;orthogonalLoop=1;jettySize=auto;html=1;" edge="1" parent="1" source="ol1APRUKmw6faN0r31_i-2" target="ol1APRUKmw6faN0r31_i-1">
          <mxGeometry relative="1" as="geometry" />
        </mxCell>
        <mxCell id="ol1APRUKmw6faN0r31_i-2" value="" style="outlineConnect=0;dashed=0;verticalLabelPosition=bottom;verticalAlign=top;align=center;html=1;shape=mxgraph.aws3.lambda_function;fillColor=#F58534;gradientColor=none;" vertex="1" parent="1">
          <mxGeometry x="140" y="254.5" width="60" height="50" as="geometry" />
        </mxCell>
        <mxCell id="ol1APRUKmw6faN0r31_i-55" style="edgeStyle=orthogonalEdgeStyle;rounded=0;orthogonalLoop=1;jettySize=auto;html=1;" edge="1" parent="1" source="ol1APRUKmw6faN0r31_i-3" target="ol1APRUKmw6faN0r31_i-7">
          <mxGeometry relative="1" as="geometry" />
        </mxCell>
        <mxCell id="ol1APRUKmw6faN0r31_i-3" value="" style="sketch=0;outlineConnect=0;fontColor=#232F3E;gradientColor=none;fillColor=#4D27AA;strokeColor=none;dashed=0;verticalLabelPosition=bottom;verticalAlign=top;align=center;html=1;fontSize=12;fontStyle=0;aspect=fixed;pointerEvents=1;shape=mxgraph.aws4.glue_crawlers;" vertex="1" parent="1">
          <mxGeometry x="241" y="331" width="59" height="59" as="geometry" />
        </mxCell>
        <mxCell id="ol1APRUKmw6faN0r31_i-52" style="edgeStyle=orthogonalEdgeStyle;rounded=0;orthogonalLoop=1;jettySize=auto;html=1;" edge="1" parent="1" source="ol1APRUKmw6faN0r31_i-4" target="ol1APRUKmw6faN0r31_i-7">
          <mxGeometry relative="1" as="geometry" />
        </mxCell>
        <mxCell id="ol1APRUKmw6faN0r31_i-4" value="" style="sketch=0;points=[[0,0,0],[0.25,0,0],[0.5,0,0],[0.75,0,0],[1,0,0],[0,1,0],[0.25,1,0],[0.5,1,0],[0.75,1,0],[1,1,0],[0,0.25,0],[0,0.5,0],[0,0.75,0],[1,0.25,0],[1,0.5,0],[1,0.75,0]];outlineConnect=0;fontColor=#232F3E;gradientColor=#945DF2;gradientDirection=north;fillColor=#5A30B5;strokeColor=#ffffff;dashed=0;verticalLabelPosition=bottom;verticalAlign=top;align=center;html=1;fontSize=12;fontStyle=0;aspect=fixed;shape=mxgraph.aws4.resourceIcon;resIcon=mxgraph.aws4.glue;" vertex="1" parent="1">
          <mxGeometry x="370" y="150" width="50" height="50" as="geometry" />
        </mxCell>
        <mxCell id="ol1APRUKmw6faN0r31_i-5" value="" style="outlineConnect=0;dashed=0;verticalLabelPosition=bottom;verticalAlign=top;align=center;html=1;shape=mxgraph.aws3.cloudwatch;fillColor=#759C3E;gradientColor=none;" vertex="1" parent="1">
          <mxGeometry x="580" y="5" width="60" height="55" as="geometry" />
        </mxCell>
        <mxCell id="ol1APRUKmw6faN0r31_i-42" style="edgeStyle=orthogonalEdgeStyle;rounded=0;orthogonalLoop=1;jettySize=auto;html=1;" edge="1" parent="1" source="ol1APRUKmw6faN0r31_i-6" target="ol1APRUKmw6faN0r31_i-8">
          <mxGeometry relative="1" as="geometry" />
        </mxCell>
        <mxCell id="ol1APRUKmw6faN0r31_i-6" value="Amazon Athena" style="sketch=0;outlineConnect=0;fontColor=#232F3E;gradientColor=none;strokeColor=#ffffff;fillColor=#232F3E;dashed=0;verticalLabelPosition=middle;verticalAlign=bottom;align=center;html=1;whiteSpace=wrap;fontSize=10;fontStyle=1;spacing=3;shape=mxgraph.aws4.productIcon;prIcon=mxgraph.aws4.athena;" vertex="1" parent="1">
          <mxGeometry x="607.5" y="154" width="50" height="85" as="geometry" />
        </mxCell>
        <mxCell id="ol1APRUKmw6faN0r31_i-41" style="edgeStyle=orthogonalEdgeStyle;rounded=0;orthogonalLoop=1;jettySize=auto;html=1;" edge="1" parent="1" source="ol1APRUKmw6faN0r31_i-7" target="ol1APRUKmw6faN0r31_i-6">
          <mxGeometry relative="1" as="geometry" />
        </mxCell>
        <mxCell id="ol1APRUKmw6faN0r31_i-7" value="Amazon Redshift" style="sketch=0;outlineConnect=0;fontColor=#232F3E;gradientColor=none;strokeColor=#ffffff;fillColor=#232F3E;dashed=0;verticalLabelPosition=middle;verticalAlign=bottom;align=center;html=1;whiteSpace=wrap;fontSize=10;fontStyle=1;spacing=3;shape=mxgraph.aws4.productIcon;prIcon=mxgraph.aws4.redshift;" vertex="1" parent="1">
          <mxGeometry x="460" y="214.5" width="60" height="90" as="geometry" />
        </mxCell>
        <mxCell id="ol1APRUKmw6faN0r31_i-8" value="Amazon QuickSight" style="sketch=0;outlineConnect=0;fontColor=#232F3E;gradientColor=none;strokeColor=#ffffff;fillColor=#232F3E;dashed=0;verticalLabelPosition=middle;verticalAlign=bottom;align=center;html=1;whiteSpace=wrap;fontSize=10;fontStyle=1;spacing=3;shape=mxgraph.aws4.productIcon;prIcon=mxgraph.aws4.quicksight;" vertex="1" parent="1">
          <mxGeometry x="602.5" y="315.5" width="55" height="90" as="geometry" />
        </mxCell>
        <mxCell id="ol1APRUKmw6faN0r31_i-9" value="" style="sketch=0;points=[[0,0,0],[0.25,0,0],[0.5,0,0],[0.75,0,0],[1,0,0],[0,1,0],[0.25,1,0],[0.5,1,0],[0.75,1,0],[1,1,0],[0,0.25,0],[0,0.5,0],[0,0.75,0],[1,0.25,0],[1,0.5,0],[1,0.75,0]];outlineConnect=0;fontColor=#232F3E;gradientColor=#FF4F8B;gradientDirection=north;fillColor=#BC1356;strokeColor=#ffffff;dashed=0;verticalLabelPosition=bottom;verticalAlign=top;align=center;html=1;fontSize=12;fontStyle=0;aspect=fixed;shape=mxgraph.aws4.resourceIcon;resIcon=mxgraph.aws4.sns;" vertex="1" parent="1">
          <mxGeometry x="690" y="7.5" width="50" height="50" as="geometry" />
        </mxCell>
        <mxCell id="ol1APRUKmw6faN0r31_i-10" value="" style="outlineConnect=0;dashed=0;verticalLabelPosition=bottom;verticalAlign=top;align=center;html=1;shape=mxgraph.aws3.cloudtrail;fillColor=#759C3E;gradientColor=none;" vertex="1" parent="1">
          <mxGeometry x="465" y="5" width="50" height="60" as="geometry" />
        </mxCell>
        <mxCell id="ol1APRUKmw6faN0r31_i-11" value="" style="outlineConnect=0;dashed=0;verticalLabelPosition=bottom;verticalAlign=top;align=center;html=1;shape=mxgraph.aws3.iam;fillColor=#759C3E;gradientColor=none;" vertex="1" parent="1">
          <mxGeometry x="222.5" y="470" width="35" height="50" as="geometry" />
        </mxCell>
        <mxCell id="ol1APRUKmw6faN0r31_i-12" value="" style="image;html=1;image=img/lib/clip_art/computers/Server_Rack_128x128.png" vertex="1" parent="1">
          <mxGeometry x="10" y="150" width="60" height="60" as="geometry" />
        </mxCell>
        <mxCell id="ol1APRUKmw6faN0r31_i-15" value="" style="edgeStyle=orthogonalEdgeStyle;rounded=0;orthogonalLoop=1;jettySize=auto;html=1;" edge="1" parent="1" source="ol1APRUKmw6faN0r31_i-13" target="ol1APRUKmw6faN0r31_i-2">
          <mxGeometry relative="1" as="geometry" />
        </mxCell>
        <mxCell id="ol1APRUKmw6faN0r31_i-13" value="" style="fontColor=#0066CC;verticalAlign=top;verticalLabelPosition=bottom;labelPosition=center;align=center;html=1;outlineConnect=0;fillColor=#CCCCCC;strokeColor=#6881B3;gradientColor=none;gradientDirection=north;strokeWidth=2;shape=mxgraph.networks.virtual_server;" vertex="1" parent="1">
          <mxGeometry x="14.120000000000005" y="310" width="51.75" height="65.25" as="geometry" />
        </mxCell>
        <mxCell id="ol1APRUKmw6faN0r31_i-14" value="" style="endArrow=classic;startArrow=classic;html=1;rounded=0;exitX=0.5;exitY=1;exitDx=0;exitDy=0;entryX=0.5;entryY=0;entryDx=0;entryDy=0;entryPerimeter=0;" edge="1" parent="1" source="ol1APRUKmw6faN0r31_i-12" target="ol1APRUKmw6faN0r31_i-13">
          <mxGeometry width="50" height="50" relative="1" as="geometry">
            <mxPoint x="60" y="280" as="sourcePoint" />
            <mxPoint x="40" y="280" as="targetPoint" />
          </mxGeometry>
        </mxCell>
        <mxCell id="ol1APRUKmw6faN0r31_i-20" value="" style="endArrow=classic;startArrow=classic;html=1;rounded=0;" edge="1" parent="1" source="ol1APRUKmw6faN0r31_i-1" target="ol1APRUKmw6faN0r31_i-3">
          <mxGeometry width="50" height="50" relative="1" as="geometry">
            <mxPoint x="440" y="230" as="sourcePoint" />
            <mxPoint x="420" y="260" as="targetPoint" />
          </mxGeometry>
        </mxCell>
        <mxCell id="ol1APRUKmw6faN0r31_i-22" value="" style="rounded=0;whiteSpace=wrap;html=1;fillColor=#9AC7BF;" vertex="1" parent="1">
          <mxGeometry x="123.5" y="580" width="150" height="30" as="geometry" />
        </mxCell>
        <mxCell id="ol1APRUKmw6faN0r31_i-23" value="" style="sketch=0;pointerEvents=1;shadow=0;dashed=0;html=1;strokeColor=none;labelPosition=center;verticalLabelPosition=bottom;verticalAlign=top;align=center;fillColor=#505050;shape=mxgraph.mscae.intune.user_group" vertex="1" parent="1">
          <mxGeometry x="130" y="580" width="50.25" height="28.5" as="geometry" />
        </mxCell>
        <mxCell id="ol1APRUKmw6faN0r31_i-24" value="" style="sketch=0;pointerEvents=1;shadow=0;dashed=0;html=1;strokeColor=none;fillColor=#505050;labelPosition=center;verticalLabelPosition=bottom;verticalAlign=top;outlineConnect=0;align=center;shape=mxgraph.office.users.role_group;" vertex="1" parent="1">
          <mxGeometry x="210" y="580" width="41.75" height="30" as="geometry" />
        </mxCell>
        <mxCell id="ol1APRUKmw6faN0r31_i-27" value="" style="endArrow=classic;html=1;rounded=0;exitX=0.5;exitY=0;exitDx=0;exitDy=0;" edge="1" parent="1" source="ol1APRUKmw6faN0r31_i-22">
          <mxGeometry width="50" height="50" relative="1" as="geometry">
            <mxPoint x="470" y="420" as="sourcePoint" />
            <mxPoint x="230" y="520" as="targetPoint" />
            <Array as="points" />
          </mxGeometry>
        </mxCell>
        <mxCell id="ol1APRUKmw6faN0r31_i-32" value="" style="endArrow=classic;html=1;rounded=0;entryX=0.315;entryY=1.008;entryDx=0;entryDy=0;entryPerimeter=0;" edge="1" parent="1" source="ol1APRUKmw6faN0r31_i-11" target="ol1APRUKmw6faN0r31_i-28">
          <mxGeometry width="50" height="50" relative="1" as="geometry">
            <mxPoint x="410" y="610" as="sourcePoint" />
            <mxPoint x="410" y="550" as="targetPoint" />
          </mxGeometry>
        </mxCell>
        <mxCell id="ol1APRUKmw6faN0r31_i-36" value="On-Premise" style="text;html=1;strokeColor=none;fillColor=none;align=center;verticalAlign=middle;whiteSpace=wrap;rounded=0;" vertex="1" parent="1">
          <mxGeometry x="5.87" y="110" width="84.13" height="30" as="geometry" />
        </mxCell>
        <mxCell id="ol1APRUKmw6faN0r31_i-37" value="Cloud" style="text;html=1;strokeColor=none;fillColor=none;align=center;verticalAlign=middle;whiteSpace=wrap;rounded=0;" vertex="1" parent="1">
          <mxGeometry x="5.8700000000000045" y="390" width="60" height="30" as="geometry" />
        </mxCell>
        <mxCell id="ol1APRUKmw6faN0r31_i-44" value="" style="endArrow=classic;html=1;rounded=0;exitX=0.372;exitY=-0.017;exitDx=0;exitDy=0;exitPerimeter=0;" edge="1" parent="1" source="ol1APRUKmw6faN0r31_i-28">
          <mxGeometry width="50" height="50" relative="1" as="geometry">
            <mxPoint x="410" y="130" as="sourcePoint" />
            <mxPoint x="320" y="40" as="targetPoint" />
          </mxGeometry>
        </mxCell>
        <mxCell id="ol1APRUKmw6faN0r31_i-45" value="" style="endArrow=classic;html=1;rounded=0;" edge="1" parent="1">
          <mxGeometry width="50" height="50" relative="1" as="geometry">
            <mxPoint x="320" y="40" as="sourcePoint" />
            <mxPoint x="430" y="40" as="targetPoint" />
          </mxGeometry>
        </mxCell>
        <mxCell id="ol1APRUKmw6faN0r31_i-46" value="CloudTrail" style="text;html=1;strokeColor=none;fillColor=none;align=center;verticalAlign=middle;whiteSpace=wrap;rounded=0;" vertex="1" parent="1">
          <mxGeometry x="460" y="65" width="60" height="30" as="geometry" />
        </mxCell>
        <mxCell id="ol1APRUKmw6faN0r31_i-47" value="Monitor AWS activities" style="text;html=1;strokeColor=none;fillColor=none;align=center;verticalAlign=middle;whiteSpace=wrap;rounded=0;" vertex="1" parent="1">
          <mxGeometry x="445" y="95" width="90" height="30" as="geometry" />
        </mxCell>
        <mxCell id="ol1APRUKmw6faN0r31_i-49" value="Receive Notifications&amp;nbsp;" style="text;html=1;strokeColor=none;fillColor=none;align=center;verticalAlign=middle;whiteSpace=wrap;rounded=0;" vertex="1" parent="1">
          <mxGeometry x="668.75" y="95" width="92.5" height="30" as="geometry" />
        </mxCell>
        <mxCell id="ol1APRUKmw6faN0r31_i-50" value="SNS" style="text;html=1;strokeColor=none;fillColor=none;align=center;verticalAlign=middle;whiteSpace=wrap;rounded=0;" vertex="1" parent="1">
          <mxGeometry x="690" y="65" width="60" height="30" as="geometry" />
        </mxCell>
        <mxCell id="ol1APRUKmw6faN0r31_i-57" value="CloudWatch" style="text;html=1;strokeColor=none;fillColor=none;align=center;verticalAlign=middle;whiteSpace=wrap;rounded=0;" vertex="1" parent="1">
          <mxGeometry x="580" y="65" width="60" height="30" as="geometry" />
        </mxCell>
        <mxCell id="ol1APRUKmw6faN0r31_i-58" value="Monitor performance" style="text;html=1;strokeColor=none;fillColor=none;align=center;verticalAlign=middle;whiteSpace=wrap;rounded=0;" vertex="1" parent="1">
          <mxGeometry x="580" y="95" width="60" height="30" as="geometry" />
        </mxCell>
        <mxCell id="ol1APRUKmw6faN0r31_i-59" value="" style="shape=image;html=1;verticalAlign=top;verticalLabelPosition=bottom;labelBackgroundColor=#ffffff;imageAspect=0;aspect=fixed;image=https://cdn4.iconfinder.com/data/icons/iphone-calculator-shopping-report/128/barChart.png" vertex="1" parent="1">
          <mxGeometry x="740" y="310" width="98" height="98" as="geometry" />
        </mxCell>
        <mxCell id="ol1APRUKmw6faN0r31_i-61" value="" style="endArrow=classic;html=1;rounded=0;" edge="1" parent="1" source="ol1APRUKmw6faN0r31_i-8">
          <mxGeometry width="50" height="50" relative="1" as="geometry">
            <mxPoint x="540" y="350" as="sourcePoint" />
            <mxPoint x="750" y="359" as="targetPoint" />
            <Array as="points" />
          </mxGeometry>
        </mxCell>
        <mxCell id="ol1APRUKmw6faN0r31_i-62" value="Visual analytics" style="text;html=1;strokeColor=none;fillColor=none;align=center;verticalAlign=middle;whiteSpace=wrap;rounded=0;" vertex="1" parent="1">
          <mxGeometry x="759" y="408" width="60" height="30" as="geometry" />
        </mxCell>
        <mxCell id="ol1APRUKmw6faN0r31_i-63" value="Lambda" style="text;html=1;strokeColor=none;fillColor=none;align=center;verticalAlign=middle;whiteSpace=wrap;rounded=0;" vertex="1" parent="1">
          <mxGeometry x="140" y="220" width="60" height="30" as="geometry" />
        </mxCell>
        <mxCell id="ol1APRUKmw6faN0r31_i-64" value="Crawler" style="text;html=1;strokeColor=none;fillColor=none;align=center;verticalAlign=middle;whiteSpace=wrap;rounded=0;" vertex="1" parent="1">
          <mxGeometry x="240" y="390" width="60" height="30" as="geometry" />
        </mxCell>
        <mxCell id="ol1APRUKmw6faN0r31_i-65" value="User/Group/Role" style="text;html=1;strokeColor=none;fillColor=none;align=center;verticalAlign=middle;whiteSpace=wrap;rounded=0;" vertex="1" parent="1">
          <mxGeometry x="162.5" y="610" width="60" height="30" as="geometry" />
        </mxCell>
        <mxCell id="ol1APRUKmw6faN0r31_i-66" value="IAM&lt;br&gt;" style="text;html=1;strokeColor=none;fillColor=none;align=center;verticalAlign=middle;whiteSpace=wrap;rounded=0;" vertex="1" parent="1">
          <mxGeometry x="210" y="440" width="60" height="30" as="geometry" />
        </mxCell>
        <mxCell id="ol1APRUKmw6faN0r31_i-67" value="Glue job" style="text;html=1;strokeColor=none;fillColor=none;align=center;verticalAlign=middle;whiteSpace=wrap;rounded=0;" vertex="1" parent="1">
          <mxGeometry x="365" y="200" width="60" height="30" as="geometry" />
        </mxCell>
      </root>
    </mxGraphModel>
  </diagram>
</mxfile>
